<svg version="1.1" xmlns="http://www.w3.org/2000/svg" width="95" height="32" viewBox="0 0 95 32">
<title>logo</title>
<path fill="#ea4335" d="M40.261 16.41c0 4.442-3.475 7.715-7.739 7.715s-7.739-3.273-7.739-7.715c0-4.473 3.475-7.715 7.739-7.715s7.739 3.242 7.739 7.715zM36.873 16.41c0-2.776-2.014-4.675-4.351-4.675s-4.351 1.899-4.351 4.675c0 2.748 2.014 4.675 4.351 4.675s4.351-1.93 4.351-4.675z"></path>
<path fill="#fbbc05" d="M56.957 16.41c0 4.442-3.475 7.715-7.739 7.715s-7.739-3.273-7.739-7.715c0-4.47 3.475-7.715 7.739-7.715s7.739 3.242 7.739 7.715zM53.569 16.41c0-2.776-2.014-4.675-4.351-4.675s-4.351 1.899-4.351 4.675c0 2.748 2.014 4.675 4.351 4.675s4.351-1.93 4.351-4.675z"></path>
<path fill="#4285f4" d="M72.957 9.162v13.85c0 5.697-3.36 8.024-7.332 8.024-3.739 0-5.99-2.501-6.838-4.546l2.95-1.228c0.525 1.256 1.812 2.737 3.885 2.737 2.543 0 4.118-1.569 4.118-4.522v-1.11h-0.118c-0.758 0.936-2.219 1.753-4.063 1.753-3.857 0-7.391-3.36-7.391-7.683 0-4.355 3.534-7.743 7.391-7.743 1.84 0 3.301 0.817 4.063 1.725h0.118v-1.256h3.217zM69.979 16.438c0-2.717-1.812-4.703-4.118-4.703-2.337 0-4.296 1.986-4.296 4.703 0 2.689 1.958 4.647 4.296 4.647 2.306 0 4.118-1.958 4.118-4.647z"></path>
<path fill="#34a853" d="M78.261 1.043v22.609h-3.304v-22.609h3.304z"></path>
<path fill="#ea4335" d="M91.137 18.95l2.63 1.753c-0.849 1.256-2.894 3.419-6.428 3.419-4.383 0-7.656-3.388-7.656-7.715 0-4.588 3.301-7.715 7.277-7.715 4.003 0 5.962 3.186 6.602 4.908l0.351 0.877-10.313 4.271c0.79 1.548 2.017 2.337 3.739 2.337 1.725 0 2.922-0.849 3.798-2.136zM83.043 16.174l6.894-2.863c-0.379-0.963-1.52-1.635-2.863-1.635-1.722 0-4.118 1.52-4.031 4.497z"></path>
<path fill="#4285f4" d="M12.275 14.403v-3.273h11.030c0.108 0.57 0.163 1.245 0.163 1.976 0 2.456-0.671 5.492-2.835 7.656-2.104 2.191-4.793 3.36-8.355 3.36-6.602 0-12.153-5.377-12.153-11.979s5.551-11.979 12.153-11.979c3.652 0 6.254 1.433 8.209 3.301l-2.31 2.31c-1.402-1.315-3.301-2.337-5.903-2.337-4.821 0-8.591 3.885-8.591 8.706s3.77 8.706 8.591 8.706c3.127 0 4.908-1.256 6.049-2.397 0.925-0.925 1.534-2.247 1.774-4.052l-7.823 0.003z"></path>
</svg>
